<?xml version="1.0" encoding="UTF-8"?>
<svg width="512" height="512" viewBox="0 0 512 512" xmlns="http://www.w3.org/2000/svg">
  <!-- Background circle with Ghana green theme -->
  <circle cx="256" cy="256" r="256" fill="#22c55e"/>
  
  <!-- Building/house icon -->
  <g transform="translate(102.4, 128)">
    <!-- House base -->
    <rect x="0" y="153.6" width="307.2" height="179.2" fill="white" rx="10.24"/>
    
    <!-- Roof -->
    <polygon points="-25.6,153.6 153.6,51.2 332.8,153.6" fill="white"/>
    
    <!-- Door -->
    <rect x="51.2" y="230.4" width="61.44" height="102.4" fill="#22c55e" rx="5.12"/>
    
    <!-- Windows -->
    <rect x="179.2" y="204.8" width="40.96" height="40.96" fill="#22c55e" rx="2.56"/>
    <rect x="240.64" y="204.8" width="40.96" height="40.96" fill="#22c55e" rx="2.56"/>
    
    <!-- Solar panel on roof -->
    <rect x="76.8" y="76.8" width="153.6" height="40.96" fill="#1e40af" rx="2.56"/>
    
    <!-- Eco leaf symbol -->
    <g transform="translate(230.4, 25.6)">
      <path d="M 0,40.96 Q 20.48,0 40.96,20.48 Q 20.48,40.96 0,40.96" fill="#16a34a"/>
      <line x1="0" y1="40.96" x2="20.48" y2="20.48" stroke="#16a34a" stroke-width="1.024"/>
    </g>
  </g>
  
  <!-- Ghana flag colors accent (small stripe at bottom) -->
  <rect x="0" y="460.8" width="512" height="16.896" fill="#dc2626"/>
  <rect x="0" y="477.696" width="512" height="16.896" fill="#eab308"/>
  <rect x="0" y="494.592" width="512" height="17.408" fill="#16a34a"/>
</svg>