<?xml version="1.0" encoding="UTF-8"?>
<svg width="72" height="72" viewBox="0 0 72 72" xmlns="http://www.w3.org/2000/svg">
  <!-- Background circle with Ghana green theme -->
  <circle cx="36" cy="36" r="36" fill="#22c55e"/>
  
  <!-- Building/house icon -->
  <g transform="translate(14.4, 18)">
    <!-- House base -->
    <rect x="0" y="21.599999999999998" width="43.199999999999996" height="25.2" fill="white" rx="1.44"/>
    
    <!-- Roof -->
    <polygon points="-3.6,21.599999999999998 21.599999999999998,7.2 46.800000000000004,21.599999999999998" fill="white"/>
    
    <!-- Door -->
    <rect x="7.2" y="32.4" width="8.64" height="14.4" fill="#22c55e" rx="0.72"/>
    
    <!-- Windows -->
    <rect x="25.2" y="28.8" width="5.76" height="5.76" fill="#22c55e" rx="0.36"/>
    <rect x="33.839999999999996" y="28.8" width="5.76" height="5.76" fill="#22c55e" rx="0.36"/>
    
    <!-- Solar panel on roof -->
    <rect x="10.799999999999999" y="10.799999999999999" width="21.599999999999998" height="5.76" fill="#1e40af" rx="0.36"/>
    
    <!-- Eco leaf symbol -->
    <g transform="translate(32.4, 3.6)">
      <path d="M 0,5.76 Q 2.88,0 5.76,2.88 Q 2.88,5.76 0,5.76" fill="#16a34a"/>
      <line x1="0" y1="5.76" x2="2.88" y2="2.88" stroke="#16a34a" stroke-width="0.14400000000000002"/>
    </g>
  </g>
  
  <!-- Ghana flag colors accent (small stripe at bottom) -->
  <rect x="0" y="64.8" width="72" height="2.3760000000000003" fill="#dc2626"/>
  <rect x="0" y="67.176" width="72" height="2.3760000000000003" fill="#eab308"/>
  <rect x="0" y="69.55199999999999" width="72" height="2.4480000000000004" fill="#16a34a"/>
</svg>